<?xml version="1.0" encoding="utf-8"?>
<!-- Generator: Adobe Illustrator 19.0.0, SVG Export Plug-In . SVG Version: 6.00 Build 0)  -->
<svg version="1.1" id="Layer_1" xmlns="http://www.w3.org/2000/svg" xmlns:xlink="http://www.w3.org/1999/xlink" x="0px" y="0px"
	 viewBox="0 0 669 697.3" style="enable-background:new 0 0 669 697.3;" xml:space="preserve">
<style type="text/css">
	.st0{fill:#1A2930;}
	.st1{fill:#1A2930;stroke:#F7CE3E;stroke-width:4;stroke-miterlimit:10;}
</style>
<rect id="XMLID_13_" y="0.2" class="st0" width="669" height="697.1"/>
<g id="XMLID_2_">
	<polyline id="XMLID_18_" class="st1" points="320.6,555.3 235.9,640.1 235.9,554.9 320.2,554.9 	"/>
	<polyline id="XMLID_20_" class="st1" points="350.1,555.1 435.1,640.1 435.1,554.9 350.1,554.9 	"/>
	<polygon id="XMLID_14_" class="st1" points="527.7,56.2 612.8,56.2 527.7,141.2 	"/>
	<polygon id="XMLID_15_" class="st1" points="142.2,56.2 57.2,56.2 142.2,141.2 	"/>
	<polyline id="XMLID_1_" class="st1" points="235.5,56.2 150.7,56.2 150.7,141.2 320.2,141.2 235.5,56.5 	"/>
	<polygon id="XMLID_3_" class="st1" points="350.1,141.2 519.2,141.2 519.2,56.2 435.1,56.2 	"/>
	<polyline id="XMLID_8_" class="st1" points="320.2,546.4 235.9,546.4 235.9,149.7 320.2,149.7 320.2,546.8 	"/>
	<rect id="XMLID_10_" x="350.1" y="149.7" class="st1" width="85" height="396.7"/>
</g>
</svg>
