<?xml version="1.0" encoding="utf-8"?>
<!-- Generator: Adobe Illustrator 19.0.0, SVG Export Plug-In . SVG Version: 6.00 Build 0)  -->
<svg version="1.1" id="Layer_1" xmlns="http://www.w3.org/2000/svg" xmlns:xlink="http://www.w3.org/1999/xlink" x="0px" y="0px"
	 viewBox="0 0 272.1 283.5" style="enable-background:new 0 0 272.1 283.5;" xml:space="preserve">
<style type="text/css">
	.st0{fill:#291B2C;stroke:#000000;stroke-width:2;stroke-miterlimit:10;}
	.st1{fill:#291B2C;stroke:#CCA969;stroke-width:2;stroke-miterlimit:10;}
</style>
<rect id="XMLID_4_" x="0" class="st0" width="272.3" height="283.6"/>
<g id="XMLID_1_">
	<polygon id="XMLID_43_" class="st1" points="4.4,15.6 43.6,53.6 43.6,15.6 	"/>
	<polygon id="XMLID_51_" class="st1" points="47.8,54 130,54 94.3,16 47.8,16 47.8,53.3 	"/>
</g>
<rect id="XMLID_55_" x="98.2" y="58.2" class="st1" width="34.3" height="165.6"/>
<polyline id="XMLID_59_" class="st1" points="98.2,270.6 98.2,227.9 132.4,227.9 98.8,270.6 "/>
<rect id="XMLID_62_" x="142.3" y="58.2" class="st1" width="34.3" height="165.6"/>
<polyline id="XMLID_57_" class="st1" points="176.5,270.6 176.5,227.9 142.3,227.9 175.9,270.6 "/>
<g id="XMLID_2_">
	<polygon id="XMLID_5_" class="st1" points="269.9,15.4 230.7,53.4 230.7,15.4 	"/>
	<polygon id="XMLID_3_" class="st1" points="226.5,53.8 144.3,53.8 180,15.8 226.5,15.8 226.5,53.1 	"/>
</g>
</svg>
